<svg width="20" height="20" viewBox="0 0 20 20" fill="none" xmlns="http://www.w3.org/2000/svg">
<path d="M9.6923 0.807678C5.68614 0.807678 2.42307 4.12729 2.42307 8.21422C2.42307 14.1104 8.98153 18.2781 9.26422 18.4558C9.39345 18.5365 9.54691 18.5769 9.6923 18.5769C9.83768 18.5769 9.99114 18.5365 10.1204 18.4558C10.4031 18.2781 16.9615 14.1104 16.9615 8.21422C16.9615 4.12729 13.6985 0.807678 9.6923 0.807678ZM9.6923 16.7919C8.30307 15.8065 4.03845 12.4223 4.03845 8.21422C4.03845 5.01575 6.5746 2.42306 9.6923 2.42306C12.81 2.42306 15.3461 5.01575 15.3461 8.21422C15.3461 12.4223 11.0815 15.8065 9.6923 16.7919Z" fill="#A0A0A0"/>
<path d="M12.9231 8.07693C12.9231 8.52116 12.5596 8.88462 12.1154 8.88462H10.5V10.5C10.5 10.9442 10.1365 11.3077 9.69232 11.3077C9.24809 11.3077 8.88462 10.9442 8.88462 10.5V8.88462H7.26924C6.82501 8.88462 6.46155 8.52116 6.46155 8.07693C6.46155 7.6327 6.82501 7.26924 7.26924 7.26924H8.88462V5.65385C8.88462 5.20962 9.24809 4.84616 9.69232 4.84616C10.1365 4.84616 10.5 5.20962 10.5 5.65385V7.26924H12.1154C12.5596 7.26924 12.9231 7.6327 12.9231 8.07693Z" fill="#A0A0A0"/>
</svg>
