<svg width="118" height="44" viewBox="0 0 118 44" fill="none" xmlns="http://www.w3.org/2000/svg">
<path d="M50.898 10.228V16.276C50.898 16.9387 51.0707 17.4473 51.416 17.802C51.7613 18.1473 52.2467 18.32 52.872 18.32C53.5067 18.32 53.9967 18.1473 54.342 17.802C54.6873 17.4473 54.86 16.9387 54.86 16.276V10.228H56.834V16.262C56.834 17.0927 56.652 17.7973 56.288 18.376C55.9333 18.9453 55.4527 19.3747 54.846 19.664C54.2487 19.9533 53.5813 20.098 52.844 20.098C52.116 20.098 51.4533 19.9533 50.856 19.664C50.268 19.3747 49.8013 18.9453 49.456 18.376C49.1107 17.7973 48.938 17.0927 48.938 16.262V10.228H50.898ZM63.0257 12.132C63.9497 12.132 64.6964 12.426 65.2657 13.014C65.8351 13.5927 66.1197 14.4047 66.1197 15.45V20H64.1597V15.716C64.1597 15.1 64.0057 14.6287 63.6977 14.302C63.3897 13.966 62.9697 13.798 62.4377 13.798C61.8964 13.798 61.4671 13.966 61.1497 14.302C60.8417 14.6287 60.6877 15.1 60.6877 15.716V20H58.7277V12.244H60.6877V13.21C60.9491 12.874 61.2804 12.6127 61.6817 12.426C62.0924 12.23 62.5404 12.132 63.0257 12.132ZM68.9776 11.32C68.6322 11.32 68.3429 11.2127 68.1096 10.998C67.8856 10.774 67.7736 10.4987 67.7736 10.172C67.7736 9.84533 67.8856 9.57467 68.1096 9.36C68.3429 9.136 68.6322 9.024 68.9776 9.024C69.3229 9.024 69.6076 9.136 69.8316 9.36C70.0649 9.57467 70.1816 9.84533 70.1816 10.172C70.1816 10.4987 70.0649 10.774 69.8316 10.998C69.6076 11.2127 69.3229 11.32 68.9776 11.32ZM69.9436 12.244V20H67.9836V12.244H69.9436ZM75.1141 18.194L77.0741 12.244H79.1601L76.2901 20H73.9101L71.0541 12.244H73.1541L75.1141 18.194ZM87.4709 15.954C87.4709 16.234 87.4523 16.486 87.4149 16.71H81.7449C81.7916 17.27 81.9876 17.7087 82.3329 18.026C82.6783 18.3433 83.1029 18.502 83.6069 18.502C84.3349 18.502 84.8529 18.1893 85.1609 17.564H87.2749C87.0509 18.3107 86.6216 18.9267 85.9869 19.412C85.3523 19.888 84.5729 20.126 83.6489 20.126C82.9023 20.126 82.2303 19.9627 81.6329 19.636C81.0449 19.3 80.5829 18.8287 80.2469 18.222C79.9203 17.6153 79.7569 16.9153 79.7569 16.122C79.7569 15.3193 79.9203 14.6147 80.2469 14.008C80.5736 13.4013 81.0309 12.9347 81.6189 12.608C82.2069 12.2813 82.8836 12.118 83.6489 12.118C84.3863 12.118 85.0443 12.2767 85.6229 12.594C86.2109 12.9113 86.6636 13.364 86.9809 13.952C87.3076 14.5307 87.4709 15.198 87.4709 15.954ZM85.4409 15.394C85.4316 14.89 85.2496 14.4887 84.8949 14.19C84.5403 13.882 84.1063 13.728 83.5929 13.728C83.1076 13.728 82.6969 13.8773 82.3609 14.176C82.0343 14.4653 81.8336 14.8713 81.7589 15.394H85.4409ZM90.8615 13.448C91.1135 13.0373 91.4402 12.7153 91.8415 12.482C92.2522 12.2487 92.7189 12.132 93.2415 12.132V14.19H92.7235C92.1075 14.19 91.6409 14.3347 91.3235 14.624C91.0155 14.9133 90.8615 15.4173 90.8615 16.136V20H88.9015V12.244H90.8615V13.448ZM97.5297 20.126C96.895 20.126 96.3257 20.014 95.8217 19.79C95.3177 19.5567 94.9164 19.244 94.6177 18.852C94.3284 18.46 94.1697 18.026 94.1417 17.55H96.1157C96.153 17.8487 96.2977 18.096 96.5497 18.292C96.811 18.488 97.133 18.586 97.5157 18.586C97.889 18.586 98.1784 18.5113 98.3837 18.362C98.5984 18.2127 98.7057 18.0213 98.7057 17.788C98.7057 17.536 98.575 17.3493 98.3137 17.228C98.0617 17.0973 97.6557 16.9573 97.0957 16.808C96.517 16.668 96.041 16.5233 95.6677 16.374C95.3037 16.2247 94.9864 15.996 94.7157 15.688C94.4544 15.38 94.3237 14.9647 94.3237 14.442C94.3237 14.0127 94.445 13.6207 94.6877 13.266C94.9397 12.9113 95.2944 12.6313 95.7517 12.426C96.2184 12.2207 96.7644 12.118 97.3897 12.118C98.3137 12.118 99.051 12.3513 99.6017 12.818C100.152 13.2753 100.456 13.896 100.512 14.68H98.6357C98.6077 14.372 98.477 14.1293 98.2437 13.952C98.0197 13.7653 97.7164 13.672 97.3337 13.672C96.979 13.672 96.7037 13.7373 96.5077 13.868C96.321 13.9987 96.2277 14.1807 96.2277 14.414C96.2277 14.6753 96.3584 14.876 96.6197 15.016C96.881 15.1467 97.287 15.282 97.8377 15.422C98.3977 15.562 98.8597 15.7067 99.2237 15.856C99.5877 16.0053 99.9004 16.2387 100.162 16.556C100.432 16.864 100.572 17.2747 100.582 17.788C100.582 18.236 100.456 18.6373 100.204 18.992C99.961 19.3467 99.6064 19.6267 99.1397 19.832C98.6824 20.028 98.1457 20.126 97.5297 20.126ZM101.687 16.094C101.687 15.31 101.841 14.6147 102.149 14.008C102.466 13.4013 102.891 12.9347 103.423 12.608C103.964 12.2813 104.566 12.118 105.229 12.118C105.807 12.118 106.311 12.2347 106.741 12.468C107.179 12.7013 107.529 12.9953 107.791 13.35V12.244H109.765V20H107.791V18.866C107.539 19.23 107.189 19.5333 106.741 19.776C106.302 20.0093 105.793 20.126 105.215 20.126C104.561 20.126 103.964 19.958 103.423 19.622C102.891 19.286 102.466 18.8147 102.149 18.208C101.841 17.592 101.687 16.8873 101.687 16.094ZM107.791 16.122C107.791 15.646 107.697 15.24 107.511 14.904C107.324 14.5587 107.072 14.2973 106.755 14.12C106.437 13.9333 106.097 13.84 105.733 13.84C105.369 13.84 105.033 13.9287 104.725 14.106C104.417 14.2833 104.165 14.5447 103.969 14.89C103.782 15.226 103.689 15.6273 103.689 16.094C103.689 16.5607 103.782 16.9713 103.969 17.326C104.165 17.6713 104.417 17.9373 104.725 18.124C105.042 18.3107 105.378 18.404 105.733 18.404C106.097 18.404 106.437 18.3153 106.755 18.138C107.072 17.9513 107.324 17.69 107.511 17.354C107.697 17.0087 107.791 16.598 107.791 16.122ZM113.639 9.64V20H111.679V9.64H113.639ZM58.976 25.312V35H57.702V27.776L54.482 35H53.586L50.352 27.762V35H49.078V25.312H50.45L54.034 33.32L57.618 25.312H58.976ZM60.6606 31.136C60.6606 30.352 60.8193 29.666 61.1366 29.078C61.4539 28.4807 61.8879 28.0187 62.4386 27.692C62.9986 27.3653 63.6193 27.202 64.3006 27.202C64.9726 27.202 65.5559 27.3467 66.0506 27.636C66.5453 27.9253 66.9139 28.2893 67.1566 28.728V27.328H68.4446V35H67.1566V33.572C66.9046 34.02 66.5266 34.3933 66.0226 34.692C65.5279 34.9813 64.9493 35.126 64.2866 35.126C63.6053 35.126 62.9893 34.958 62.4386 34.622C61.8879 34.286 61.4539 33.8147 61.1366 33.208C60.8193 32.6013 60.6606 31.9107 60.6606 31.136ZM67.1566 31.15C67.1566 30.5713 67.0399 30.0673 66.8066 29.638C66.5733 29.2087 66.2559 28.882 65.8546 28.658C65.4626 28.4247 65.0286 28.308 64.5526 28.308C64.0766 28.308 63.6426 28.42 63.2506 28.644C62.8586 28.868 62.5459 29.1947 62.3126 29.624C62.0793 30.0533 61.9626 30.5573 61.9626 31.136C61.9626 31.724 62.0793 32.2373 62.3126 32.676C62.5459 33.1053 62.8586 33.4367 63.2506 33.67C63.6426 33.894 64.0766 34.006 64.5526 34.006C65.0286 34.006 65.4626 33.894 65.8546 33.67C66.2559 33.4367 66.5733 33.1053 66.8066 32.676C67.0399 32.2373 67.1566 31.7287 67.1566 31.15ZM71.8715 24.64V35H70.5975V24.64H71.8715ZM75.3168 24.64V35H74.0428V24.64H75.3168Z" fill="white"/>
<path d="M14.7865 41.9799C14.6911 41.8926 14.5972 41.8039 14.5037 41.7146C14.4556 41.669 14.4556 41.669 14.4065 41.6225C14.195 41.4174 14.0055 41.2007 13.8246 40.9687C13.8096 40.9496 13.7946 40.9305 13.7792 40.9109C12.8916 39.7717 12.3341 38.4466 12.1089 37.0257C12.1049 37.0013 12.1009 36.9769 12.0968 36.9518C12.0674 36.7517 12.0698 36.5526 12.0732 36.3507C12.0395 36.3652 12.0395 36.3652 12.0052 36.38C11.1043 36.7654 10.1951 37.0698 9.21376 37.1677C9.17801 37.1717 9.14226 37.1756 9.10542 37.1797C6.95408 37.3836 4.78827 36.7096 3.10847 35.3716C2.30025 34.6974 1.61774 33.9276 1.10017 33.0116C1.0784 32.9734 1.0784 32.9734 1.05619 32.9345C0.564902 32.0658 0.25331 31.1178 0.0993793 30.1343C0.0930202 30.0938 0.0930202 30.0938 0.0865352 30.0524C-0.21515 28.021 0.328043 25.8055 1.54095 24.1428C1.72805 23.8929 1.92455 23.6525 2.13825 23.4244C2.20209 23.356 2.26208 23.2857 2.32213 23.2141C2.64591 22.8462 3.02936 22.5379 3.42345 22.2483C3.47569 22.2094 3.52791 22.1705 3.5801 22.1316C3.60466 22.1133 3.62923 22.095 3.65454 22.0761C3.67264 22.0626 3.69074 22.0491 3.70939 22.0352C3.67391 22.0093 3.63843 21.9835 3.60188 21.9569C2.94059 21.4721 2.31615 20.9468 1.81503 20.2946C1.80027 20.2757 1.78552 20.2568 1.77031 20.2374C0.883665 19.0999 0.320818 17.7718 0.0993781 16.3516C0.094789 16.323 0.0901961 16.2945 0.0854659 16.2651C-0.240523 14.1445 0.384854 11.9553 1.6412 10.2367C2.90604 8.53189 4.73949 7.42998 6.819 7.00912C6.84931 7.00275 6.87962 6.99638 6.91085 6.98982C7.83205 6.80429 8.93938 6.80767 9.85713 7.00912C9.89182 7.01637 9.92652 7.02362 9.96226 7.03108C10.705 7.18818 11.394 7.41847 12.0732 7.7551C12.0725 7.73176 12.0718 7.70842 12.0711 7.68437C12.0671 7.43226 12.0899 7.19327 12.1313 6.94474C12.1376 6.90626 12.144 6.86779 12.1506 6.82815C12.416 5.29855 13.1129 3.90449 14.1462 2.74642C14.1637 2.72686 14.1811 2.70729 14.1991 2.68714C14.8659 1.94323 15.6556 1.36173 16.541 0.899252C16.5785 0.879545 16.5785 0.879545 16.6168 0.859446C17.7675 0.264582 19.0437 -0.00543024 20.3342 8.57038e-05C20.3665 0.000161995 20.3988 0.000238286 20.4321 0.000318392C20.9175 0.00216085 21.3902 0.0177782 21.8667 0.117754C21.902 0.125002 21.9373 0.13225 21.9737 0.139715C23.2118 0.400079 24.4162 0.880781 25.4052 1.68075C25.4536 1.7188 25.4536 1.7188 25.5031 1.75762C27.213 3.11814 28.3698 5.07846 28.622 7.25493C28.6304 7.33414 28.6378 7.41337 28.6449 7.4927C28.6534 7.6125 28.6534 7.6125 28.6935 7.71958C28.73 7.70236 28.7665 7.68514 28.8041 7.6674C29.929 7.14743 31.1048 6.88616 32.3437 6.89145C32.376 6.89153 32.4083 6.89161 32.4416 6.89169C32.927 6.89353 33.3998 6.90915 33.8762 7.00912C33.9115 7.01637 33.9468 7.02362 33.9832 7.03108C35.962 7.44719 37.779 8.5021 38.9874 10.1351C39.0026 10.1554 39.0179 10.1757 39.0336 10.1965C40.107 11.6279 40.687 13.3459 40.6785 15.1305C40.6784 15.1599 40.6783 15.1893 40.6783 15.2196C40.6687 17.5047 39.7119 19.552 38.0994 21.1526C37.8613 21.3846 37.6119 21.5907 37.3433 21.7865C37.2867 21.8302 37.2301 21.8738 37.1735 21.9175C37.0573 21.9996 37.0573 21.9996 36.9858 21.9996C37.0944 22.1187 37.2089 22.211 37.341 22.3038C37.9715 22.7534 38.528 23.297 38.9874 23.9178C39.0026 23.9381 39.0179 23.9584 39.0336 23.9793C39.8031 25.0053 40.3144 26.1786 40.5601 27.4346C40.5659 27.4641 40.5718 27.4936 40.5778 27.524C40.7647 28.5193 40.731 29.6077 40.5243 30.5961C40.5177 30.6283 40.511 30.6605 40.5041 30.6937C40.1868 32.1675 39.4565 33.5174 38.4155 34.6101C38.3945 34.6323 38.3734 34.6544 38.3517 34.6772C37.9941 35.0499 37.6225 35.3775 37.2003 35.6758C37.1684 35.6989 37.1684 35.6989 37.136 35.7224C35.4638 36.9309 33.2321 37.4259 31.1955 37.1322C30.3011 36.9911 29.4787 36.7277 28.6578 36.3507C28.6531 36.4167 28.6531 36.4167 28.6484 36.4839C28.5265 38.0456 27.9674 39.5425 27.0136 40.791C26.9898 40.8222 26.9661 40.8534 26.9416 40.8855C26.7526 41.1264 26.5462 41.3514 26.3345 41.5725C26.3056 41.6028 26.3056 41.6028 26.2761 41.6337C25.9826 41.9387 25.6766 42.2116 25.3337 42.4606C25.3144 42.4746 25.2951 42.4887 25.2752 42.5031C22.4648 44.5296 18.5901 44.6332 14.7865 41.9799ZM23.4058 38.4044C23.9756 37.7663 24.3727 36.9011 24.3695 36.0404C24.3694 35.9987 24.3692 35.9571 24.3691 35.9142C24.3689 35.8665 24.3689 35.8665 24.3687 35.8179C24.3891 35.8182 24.4095 35.8185 24.4306 35.8188C24.9282 35.8258 25.4258 35.8311 25.9234 35.8345C26.1641 35.8361 26.4047 35.8383 26.6453 35.842C26.8775 35.8455 27.1097 35.8474 27.342 35.8482C27.4306 35.8488 27.5192 35.85 27.6078 35.8517C27.7319 35.854 27.8559 35.8543 27.98 35.8542C28.0167 35.8553 28.0533 35.8565 28.0911 35.8577C28.286 35.856 28.286 35.856 28.4408 35.7492C28.4964 35.6676 28.5423 35.5864 28.5863 35.4982C28.6133 35.451 28.6404 35.404 28.6678 35.3571C28.6944 35.3087 28.7208 35.2603 28.7471 35.2118C28.8876 34.957 29.0326 34.7053 29.1805 34.4547C29.3688 34.1355 29.5547 33.8149 29.739 33.4934C29.9475 33.1297 30.1583 32.7675 30.3734 32.4077C30.3921 32.4156 30.4107 32.4235 30.43 32.4316C31.5214 32.8879 32.6716 33.0637 33.8028 32.6166C34.2055 32.445 34.5871 32.2395 34.9127 31.9459C34.9418 31.9216 34.9709 31.8973 35.0008 31.8723C35.7683 31.2176 36.2298 30.2767 36.3425 29.2817C36.4046 28.1211 36.0835 27.0719 35.3059 26.1913C35.2808 26.1627 35.2556 26.1341 35.2297 26.1047C34.9884 25.8494 34.6967 25.6502 34.4124 25.4453C34.4245 25.4247 34.4367 25.4041 34.4492 25.3828C34.7014 24.955 34.9517 24.5263 35.1987 24.0955C35.3796 23.78 35.5617 23.4654 35.746 23.1519C35.7662 23.1173 35.7865 23.0827 35.8073 23.0471C35.9052 22.8799 36.0043 22.7137 36.1061 22.5488C36.1249 22.5179 36.1437 22.487 36.1631 22.4551C36.1982 22.3974 36.2339 22.3399 36.2702 22.2828C36.2856 22.2574 36.3009 22.2319 36.3168 22.2057C36.3373 22.1728 36.3373 22.1728 36.3582 22.1393C36.3959 22.0099 36.3152 21.9089 36.2546 21.7962C36.2344 21.7614 36.2143 21.7265 36.1935 21.6906C36.1707 21.6511 36.1479 21.6115 36.1244 21.5708C36.0995 21.528 36.0747 21.4852 36.0498 21.4424C36.024 21.3977 35.9982 21.3531 35.9724 21.3084C35.9061 21.1938 35.8397 21.0792 35.7732 20.9646C35.7143 20.8631 35.6555 20.7615 35.5966 20.6599C35.4867 20.4703 35.3766 20.2808 35.2664 20.0913C35.1958 19.9698 35.1252 19.8483 35.0547 19.7267C35.0307 19.6854 35.0067 19.644 34.9827 19.6026C34.9378 19.5251 34.8928 19.4476 34.8479 19.3701C34.817 19.3168 34.817 19.3168 34.7854 19.2625C34.7654 19.2279 34.7454 19.1934 34.7248 19.1579C34.6807 19.0824 34.6362 19.0072 34.5913 18.9322C34.5684 18.8937 34.5455 18.8553 34.5218 18.8156C34.5008 18.7808 34.4799 18.7459 34.4583 18.71C34.4124 18.625 34.4124 18.625 34.4124 18.5539C34.4766 18.5091 34.5425 18.4667 34.6089 18.4252C35.497 17.8384 36.0476 16.9121 36.271 15.8898C36.3877 15.282 36.3529 14.5964 36.1637 14.0071C36.1561 13.9827 36.1484 13.9584 36.1405 13.9334C35.8283 12.9705 35.1522 12.1216 34.2483 11.6441C33.2503 11.1438 32.1512 11.0109 31.0785 11.3486C30.8659 11.4183 30.666 11.4948 30.4682 11.5998C30.4092 11.6271 30.4092 11.6271 30.3377 11.6271C30.3251 11.6046 30.3126 11.5822 30.2997 11.5591C30.0265 11.0708 29.749 10.5855 29.4646 10.1036C29.3093 9.84015 29.1563 9.57536 29.0036 9.31033C28.9627 9.2396 28.9209 9.16943 28.878 9.09984C28.8178 8.99828 28.7712 8.8951 28.7256 8.78631C28.5708 8.43892 28.5708 8.43892 28.2794 8.21261C28.005 8.15145 27.7254 8.17092 27.4464 8.18303C27.3565 8.18436 27.2666 8.18537 27.1766 8.18608C26.965 8.1885 26.7536 8.19409 26.5421 8.20125C26.2773 8.21002 26.0125 8.21379 25.7477 8.21773C25.276 8.22532 24.8045 8.23729 24.3329 8.25242C24.3331 8.22849 24.3333 8.20456 24.3335 8.17991C24.3337 8.14828 24.3338 8.11665 24.334 8.08405C24.3342 8.0528 24.3344 8.02155 24.3346 7.98935C24.3322 7.85898 24.3144 7.73433 24.2905 7.60635C24.2857 7.58052 24.2809 7.55469 24.2759 7.52809C24.1428 6.85261 23.8413 6.26034 23.4036 5.73031C23.3831 5.70458 23.3627 5.67885 23.3416 5.65233C23.1723 5.44805 22.9707 5.28724 22.7602 5.12643C22.7323 5.10482 22.7044 5.0832 22.6756 5.06094C21.8173 4.42906 20.7365 4.20446 19.6887 4.35631C18.8502 4.48958 18.1515 4.86592 17.5418 5.44613C17.5125 5.47265 17.4831 5.49916 17.4529 5.52648C16.8148 6.12318 16.3966 7.03058 16.3266 7.89719C16.3266 8.01441 16.3266 8.13164 16.3266 8.25242C15.0055 8.25242 13.6845 8.25242 12.3234 8.25242C12.1464 8.5572 11.9695 8.86198 11.7872 9.176C11.5192 9.63779 11.5192 9.63779 11.3858 9.86744C11.2941 10.0255 11.2024 10.1836 11.1108 10.3417C11.0645 10.4216 11.0182 10.5015 10.9719 10.5814C10.9497 10.6197 10.9275 10.658 10.9046 10.6974C10.8046 10.8698 10.7042 11.0418 10.6019 11.2129C10.5765 11.2553 10.5765 11.2553 10.5506 11.2986C10.5196 11.3502 10.4886 11.4017 10.4573 11.4531C10.3824 11.5676 10.3824 11.5676 10.3575 11.6981C10.3233 11.6822 10.2891 11.6663 10.2538 11.65C9.18348 11.1629 8.05966 11.0484 6.94117 11.4569C5.90786 11.8595 5.12145 12.6179 4.6736 13.6233C4.26581 14.5831 4.23404 15.6666 4.6246 16.641C4.79313 17.0432 5.00071 17.4015 5.28207 17.7369C5.30593 17.7655 5.3298 17.794 5.35439 17.8234C5.61285 18.1206 5.91038 18.3821 6.24712 18.5895C6.27071 18.5895 6.2943 18.5895 6.31861 18.5895C6.09451 18.9755 5.87043 19.3615 5.64634 19.7476C5.62451 19.7852 5.60268 19.8228 5.58019 19.8615C5.5361 19.9375 5.492 20.0134 5.4479 20.0894C5.33386 20.2858 5.21988 20.4823 5.10601 20.6788C5.08293 20.7186 5.05984 20.7584 5.03606 20.7994C4.99061 20.8778 4.94523 20.9563 4.89993 21.0348C4.80076 21.2063 4.70074 21.3768 4.59584 21.5449C4.57876 21.5726 4.56168 21.6002 4.54408 21.6287C4.51304 21.6787 4.48152 21.7284 4.4494 21.7777C4.38604 21.8802 4.35124 21.9447 4.36077 22.0663C4.38973 22.1821 4.42942 22.2651 4.49042 22.3676C4.51173 22.4038 4.53304 22.4401 4.555 22.4774C4.5782 22.5161 4.6014 22.5548 4.6253 22.5946C4.6496 22.6357 4.67387 22.6769 4.69811 22.718C4.74845 22.8034 4.79895 22.8887 4.84956 22.9739C4.9654 23.1693 5.07893 23.366 5.19271 23.5626C5.2371 23.6391 5.2815 23.7155 5.32591 23.792C5.41818 23.9509 5.51032 24.11 5.60236 24.269C5.83748 24.6752 6.07339 25.0806 6.31861 25.4808C6.21024 25.5675 6.10095 25.6525 5.99022 25.7362C5.10327 26.425 4.59741 27.3081 4.40316 28.4063C4.28477 29.4518 4.53929 30.5198 5.20053 31.3514C5.33074 31.5067 5.46231 31.6585 5.60375 31.8038C5.6419 31.8431 5.6419 31.8431 5.68082 31.8832C6.4785 32.6488 7.551 32.9243 8.63085 32.9124C9.24857 32.8976 9.79733 32.6858 10.3575 32.4433C10.372 32.4685 10.3866 32.4938 10.4015 32.5199C10.7322 33.096 11.0643 33.6712 11.3982 34.2454C11.4679 34.3655 11.5375 34.4857 11.607 34.6058C11.6422 34.6666 11.6422 34.6666 11.678 34.7285C11.7221 34.8046 11.7661 34.8807 11.8101 34.9568C11.8503 35.0263 11.8915 35.0953 11.9336 35.1636C11.9837 35.2529 12.0186 35.327 12.0526 35.4214C12.1159 35.5785 12.1856 35.7138 12.3234 35.8179C12.6115 35.9169 12.9387 35.8796 13.2383 35.8699C13.3284 35.8689 13.4185 35.8682 13.5086 35.8676C13.7209 35.8658 13.9331 35.8616 14.1454 35.8563C14.3872 35.8503 14.6291 35.8474 14.871 35.8447C15.3682 35.8391 15.8652 35.8298 16.3623 35.8179C16.3646 35.857 16.3668 35.896 16.3692 35.9363C16.3723 35.988 16.3754 36.0398 16.3785 36.0915C16.3799 36.1172 16.3814 36.1429 16.3829 36.1694C16.4341 37.0107 16.8132 37.7822 17.3631 38.411C17.3937 38.4495 17.4243 38.4879 17.4547 38.5265C18.0854 39.2337 19.0639 39.6881 20.0081 39.7609C21.3469 39.8301 22.4812 39.3716 23.4058 38.4044Z" fill="white"/>
<path d="M17.8945 11.4637C17.8606 11.4356 17.8268 11.4074 17.792 11.3784C17.7559 11.3484 17.7199 11.3184 17.6828 11.2875C17.0442 10.739 16.6149 9.99505 16.4226 9.18044C16.4169 9.15707 16.4112 9.13371 16.4053 9.10963C16.3434 8.82287 16.3443 8.55267 16.3265 8.25241C18.9686 8.25241 21.6107 8.25241 24.3329 8.25241C24.2911 8.95773 24.2911 8.95773 24.2368 9.18043C24.2307 9.20665 24.2245 9.23287 24.2182 9.25988C23.9562 10.3176 23.263 11.1907 22.3402 11.7603C20.9543 12.5253 19.1522 12.4546 17.8945 11.4637Z" fill="white"/>
<path d="M24.3686 35.8179C21.7383 35.8179 19.108 35.8179 16.398 35.8179C16.398 35.235 16.398 35.235 16.4561 34.9676C16.4625 34.9374 16.4689 34.9072 16.4755 34.8761C16.6217 34.2246 16.9451 33.61 17.3988 33.1182C17.4285 33.0857 17.4583 33.0533 17.4889 33.0199C18.2169 32.2614 19.2062 31.8448 20.2567 31.7992C21.364 31.7789 22.3699 32.1797 23.1773 32.9274C23.7897 33.5179 24.1792 34.2835 24.3262 35.1163C24.3329 35.154 24.3329 35.154 24.3397 35.1926C24.3733 35.407 24.3686 35.5942 24.3686 35.8179Z" fill="white"/>
<path d="M30.3734 32.3367C30.1221 32.2086 29.911 32.0544 29.6943 31.8749C29.6582 31.8478 29.6221 31.8207 29.5848 31.7927C29.4234 31.646 29.2919 31.4781 29.1582 31.3065C29.1363 31.2787 29.1145 31.2508 29.092 31.2222C28.4669 30.3825 28.2346 29.3148 28.3785 28.2893C28.5404 27.2542 29.1053 26.3075 29.953 25.6811C30.8273 25.0595 31.9025 24.7984 32.9678 24.9545C33.4551 25.0371 33.9107 25.2061 34.3409 25.4453C34.3201 25.5805 34.2814 25.6771 34.211 25.7943C34.1913 25.8274 34.1716 25.8605 34.1513 25.8947C34.1191 25.9481 34.1191 25.9481 34.0862 26.0026C34.0402 26.0797 33.9943 26.1569 33.9484 26.2342C33.9246 26.274 33.9008 26.3139 33.8763 26.355C33.7624 26.5467 33.6506 26.7398 33.5389 26.9328C33.4939 27.0104 33.4489 27.088 33.4039 27.1656C33.3815 27.2042 33.3592 27.2427 33.3362 27.2824C33.2244 27.4753 33.1124 27.6681 33.0005 27.8608C32.9558 27.9378 32.9111 28.0148 32.8665 28.0917C32.7324 28.3226 32.7324 28.3226 32.5984 28.5535C32.5763 28.5916 32.5542 28.6297 32.5314 28.669C32.4867 28.7459 32.4421 28.8228 32.3974 28.8997C32.2852 29.093 32.1731 29.2863 32.061 29.4796C31.8257 29.8855 31.5894 30.2908 31.3512 30.6951C31.2359 30.8913 31.1218 31.088 31.0088 31.2856C30.9897 31.319 30.9897 31.319 30.9702 31.3531C30.9082 31.4615 30.8463 31.57 30.7846 31.6786C30.6558 31.9041 30.5223 32.1237 30.3734 32.3367Z" fill="white"/>
<path d="M6.35435 18.625C6.41347 18.464 6.49364 18.3188 6.57774 18.1698C6.5933 18.1421 6.60887 18.1144 6.6249 18.0859C6.79657 17.7819 6.97405 17.4813 7.1513 17.1805C7.28496 16.9535 7.41738 16.7259 7.54949 16.4981C7.57173 16.4597 7.59397 16.4214 7.61689 16.3819C7.662 16.3041 7.7071 16.2262 7.7522 16.1484C7.864 15.9556 7.97594 15.7628 8.08787 15.57C8.13255 15.4931 8.17722 15.4161 8.2219 15.3391C8.48997 14.8774 8.75804 14.4156 9.02611 13.9538C9.04824 13.9156 9.07037 13.8775 9.09317 13.8382C9.1377 13.7615 9.18224 13.6848 9.22677 13.6081C9.34077 13.4118 9.45471 13.2154 9.56854 13.0189C9.81757 12.5893 10.0676 12.1603 10.3218 11.7336C10.574 11.8595 10.7851 12.0157 11.0009 12.1954C11.023 12.2125 11.045 12.2297 11.0678 12.2473C11.7967 12.8262 12.184 13.7743 12.3454 14.661C12.4601 15.7297 12.2002 16.8109 11.5236 17.6614C11.4696 17.723 11.4144 17.7837 11.3583 17.8435C11.3418 17.8611 11.3253 17.8788 11.3083 17.897C11.083 18.136 10.854 18.3459 10.572 18.5184C10.5346 18.5417 10.4972 18.565 10.4586 18.589C9.23254 19.3313 7.58856 19.3869 6.35435 18.625Z" fill="white"/>
<path d="M29.7534 18.2147C28.9914 17.5506 28.4413 16.6603 28.3361 15.6411C28.309 15.0838 28.3074 14.5419 28.4791 14.007C28.4867 13.9827 28.4944 13.9584 28.5023 13.9334C28.6593 13.4491 28.8959 13.0093 29.2296 12.6217C29.2534 12.5933 29.2772 12.565 29.3017 12.5358C29.5986 12.1934 29.9378 11.9144 30.3377 11.6981C30.4606 11.8404 30.5482 11.9891 30.637 12.1532C30.7788 12.411 30.9252 12.6657 31.0749 12.9192C31.2601 13.2333 31.4431 13.5486 31.6244 13.865C31.8224 14.2103 32.0224 14.5544 32.2243 14.8975C32.4443 15.2713 32.6618 15.6465 32.8793 16.0218C33.0132 16.2529 33.1474 16.4838 33.2815 16.7148C33.396 16.912 33.5104 17.1092 33.6246 17.3066C33.6712 17.3871 33.7179 17.4677 33.7645 17.5482C33.7868 17.5867 33.8091 17.6252 33.832 17.6648C33.9695 17.9017 34.1087 18.1374 34.2538 18.3697C34.3409 18.5109 34.3409 18.5109 34.3409 18.5894C32.8433 19.3401 31.0761 19.3344 29.7534 18.2147Z" fill="white"/>
<path d="M10.3218 32.3722C10.3093 32.3498 10.2967 32.3273 10.2838 32.3042C10.0105 31.8157 9.73272 31.3302 9.44833 30.8479C9.31628 30.6239 9.18559 30.3992 9.05516 30.1742C9.03291 30.1359 9.01066 30.0975 8.98774 30.058C8.94264 29.9802 8.89754 29.9024 8.85245 29.8246C8.74065 29.6318 8.62872 29.439 8.51679 29.2462C8.47211 29.1692 8.42743 29.0923 8.38275 29.0153C8.36064 28.9772 8.33852 28.9391 8.31574 28.8999C7.57854 27.6299 7.57854 27.6299 7.51146 27.5144C7.46701 27.4378 7.42257 27.3612 7.37812 27.2847C7.27492 27.1069 7.17174 26.9292 7.0686 26.7514C7.03253 26.6892 6.99646 26.627 6.96038 26.5648C6.91546 26.4874 6.87055 26.41 6.82564 26.3325C6.80503 26.297 6.78441 26.2615 6.76316 26.2249C6.74317 26.1903 6.72317 26.1557 6.70257 26.1201C6.65864 26.045 6.61409 25.9703 6.56909 25.8958C6.54615 25.8577 6.5232 25.8196 6.49956 25.7803C6.4786 25.7458 6.45763 25.7114 6.43604 25.6759C6.3901 25.5874 6.3901 25.5874 6.3901 25.4808C7.51718 24.9281 8.6116 24.8051 9.81065 25.2052C10.3564 25.4059 10.804 25.7151 11.2154 26.1202C11.2421 26.1451 11.2689 26.17 11.2965 26.1956C11.4769 26.366 11.6181 26.5511 11.7515 26.7596C11.7751 26.7966 11.7988 26.8335 11.8231 26.8716C12.3901 27.805 12.5243 28.9053 12.2696 29.9602C12.0091 30.918 11.3707 31.8069 10.5076 32.3124C10.3933 32.3722 10.3933 32.3722 10.3218 32.3722Z" fill="white"/>
</svg>
