<svg width="38" height="38" viewBox="0 0 38 38" fill="none" xmlns="http://www.w3.org/2000/svg">
<path d="M0 16C0 7.16344 7.16344 0 16 0H22C30.8366 0 38 7.16344 38 16V22C38 30.8366 30.8366 38 22 38H16C7.16344 38 0 30.8366 0 22V16Z" fill="#D9D9D9"/>
<g clip-path="url(#clip0_6_1132)">
<path d="M19 9.95239C16.2718 9.95239 14.0521 12.172 14.0521 14.9003V15.9606C14.0521 18.6889 16.2718 20.9085 19 20.9085C21.7283 20.9085 23.948 18.6889 23.948 15.9606V14.9003C23.948 12.172 21.7283 9.95239 19 9.95239ZM22.8877 15.9606C22.8877 18.1042 21.1437 19.8482 19 19.8482C16.8564 19.8482 15.1124 18.1042 15.1124 15.9606V14.9003C15.1124 12.7567 16.8564 11.0127 19 11.0127C21.1437 11.0127 22.8877 12.7567 22.8877 14.9003V15.9606Z" fill="#061340"/>
<path d="M21.4033 21.9688H16.5967C13.5371 21.9688 11.048 24.4579 11.048 27.5175V28.0476H26.952V27.5175C26.952 24.4579 24.4628 21.9688 21.4033 21.9688ZM20.7963 23.029C20.567 23.8044 19.8487 24.372 19 24.372C18.1512 24.372 17.433 23.8044 17.2037 23.029H20.7963ZM12.1394 26.9874C12.384 24.9174 14.0429 23.2748 16.12 23.0545C16.3805 24.4071 17.5725 25.4323 19 25.4323C20.4275 25.4323 21.6195 24.4071 21.8799 23.0545C23.9571 23.2748 25.6159 24.9174 25.8606 26.9874H12.1394Z" fill="#061340"/>
<path d="M18.2932 14.3702H16.5261V15.4304H18.2932V14.3702Z" fill="#061340"/>
<path d="M21.474 14.3702H19.7068V15.4304H21.474V14.3702Z" fill="#061340"/>
</g>
<defs>
<clipPath id="clip0_6_1132">
<rect width="18.0952" height="18.0952" fill="white" transform="translate(9.95239 9.95239)"/>
</clipPath>
</defs>
</svg>
