<svg width="20" height="20" viewBox="0 0 20 20" fill="none" xmlns="http://www.w3.org/2000/svg">
<g clip-path="url(#clip0_1_87)">
<path d="M0.909099 7.27272C0.363647 7.27272 0 6.90907 0 6.36362V2.72726C0 1.18181 1.18181 0 2.72726 0H6.36362C6.90907 0 7.27272 0.363647 7.27272 0.909099C7.27272 1.45455 6.90907 1.8182 6.36362 1.8182H2.72726C2.18181 1.8182 1.81816 2.18185 1.81816 2.7273V6.36366C1.8182 6.90907 1.45455 7.27272 0.909099 7.27272Z" fill="#061340"/>
<path d="M19.0909 7.27272C18.5454 7.27272 18.1818 6.90907 18.1818 6.36362V2.72726C18.1818 2.18181 17.8181 1.81816 17.2727 1.81816H13.6363C13.0909 1.81816 12.7272 1.45451 12.7272 0.909062C12.7272 0.36361 13.0909 0 13.6363 0H17.2727C18.8181 0 20 1.18181 20 2.72726V6.36362C20 6.90907 19.6363 7.27272 19.0909 7.27272Z" fill="#061340"/>
<path d="M6.36362 20H2.72726C1.18181 20 0 18.8182 0 17.2727V13.6364C0 13.0909 0.363647 12.7273 0.909099 12.7273C1.45455 12.7273 1.8182 13.0909 1.8182 13.6364V17.2727C1.8182 17.8182 2.18185 18.1818 2.7273 18.1818H6.36366C6.90911 18.1818 7.27276 18.5455 7.27276 19.0909C7.27272 19.6363 6.90907 20 6.36362 20Z" fill="#061340"/>
<path d="M17.2728 20H13.6364C13.0909 20 12.7273 19.6363 12.7273 19.0909C12.7273 18.5454 13.0909 18.1818 13.6364 18.1818H17.2728C17.8182 18.1818 18.1819 17.8181 18.1819 17.2727V13.6363C18.1819 13.0909 18.5455 12.7272 19.091 12.7272C19.6364 12.7272 20.0001 13.0909 20.0001 13.6363V17.2727C20 18.8182 18.8182 20 17.2728 20Z" fill="#061340"/>
<path d="M8.18181 9.09091H4.54545C4 9.09091 3.63635 8.72726 3.63635 8.18181V4.54545C3.63635 4 4 3.63635 4.54545 3.63635H8.18181C8.72726 3.63635 9.09091 4 9.09091 4.54545V8.18181C9.09091 8.72726 8.72726 9.09091 8.18181 9.09091ZM5.45455 7.27271H7.27275V5.45451H5.45455V7.27271Z" fill="#061340"/>
<path d="M8.18181 16.3636H4.54545C4 16.3636 3.63635 16 3.63635 15.4545V11.8182C3.63635 11.2727 4 10.9091 4.54545 10.9091H8.18181C8.72726 10.9091 9.09091 11.2727 9.09091 11.8182V15.4545C9.09091 16 8.72726 16.3636 8.18181 16.3636ZM5.45455 14.5454H7.27275V12.7273H5.45455V14.5454Z" fill="#061340"/>
<path d="M15.4545 9.09091H11.8182C11.2727 9.09091 10.9091 8.72726 10.9091 8.18181V4.54545C10.9091 4 11.2727 3.63635 11.8182 3.63635H15.4545C16 3.63635 16.3636 4 16.3636 4.54545V8.18181C16.3636 8.72726 16 9.09091 15.4545 9.09091ZM12.7273 7.27271H14.5455V5.45451H12.7273V7.27271Z" fill="#061340"/>
<path d="M11.8182 13.6364C11.2727 13.6364 10.9091 13.2727 10.9091 12.7273V11.8182C10.9091 11.2727 11.2727 10.9091 11.8182 10.9091C12.3636 10.9091 12.7273 11.2727 12.7273 11.8182V12.7273C12.7273 13.2727 12.3636 13.6364 11.8182 13.6364Z" fill="#061340"/>
<path d="M15.4546 12.7273H14.5455C14 12.7273 13.6364 12.3636 13.6364 11.8182C13.6364 11.2727 14 10.9091 14.5455 10.9091H15.4546C16 10.9091 16.3637 11.2727 16.3637 11.8182C16.3637 12.3636 16 12.7273 15.4546 12.7273Z" fill="#061340"/>
<path d="M15.4545 16.3636H12.7273C12.1818 16.3636 11.8182 16 11.8182 15.4545C11.8182 14.9091 12.1818 14.5454 12.7273 14.5454H15.4545C16 14.5454 16.3636 14.9091 16.3636 15.4545C16.3636 16 16 16.3636 15.4545 16.3636Z" fill="#061340"/>
</g>
<defs>
<clipPath id="clip0_1_87">
<rect width="20" height="20" fill="white"/>
</clipPath>
</defs>
</svg>
