<svg width="23" height="20" viewBox="0 0 23 20" fill="none" xmlns="http://www.w3.org/2000/svg">
<g clip-path="url(#clip0_1_72)">
<path d="M6.60306 4.5515C6.28789 4.26282 5.77655 4.26282 5.46138 4.5515C4.29118 5.62243 3.71603 7.11431 3.88318 8.64486C3.92488 9.02614 4.27586 9.31036 4.68574 9.31036C4.71268 9.31036 4.73982 9.30911 4.76676 9.30665C5.21057 9.26603 5.53432 8.90368 5.48993 8.49778C5.37098 7.41009 5.77685 6.35247 6.60306 5.5963C6.91849 5.3079 6.91849 4.83989 6.60306 4.5515Z" fill="#B0B0B0"/>
<path d="M9.80039 0C4.71023 0 0.569092 3.78988 0.569092 8.44828C0.569092 13.1067 4.71023 16.8966 9.80039 16.8966C14.8905 16.8966 19.0317 13.1067 19.0317 8.44828C19.0317 3.78988 14.8905 0 9.80039 0ZM9.80039 15.4187C5.60056 15.4187 2.18392 12.2919 2.18392 8.44828C2.18392 4.60469 5.60056 1.47785 9.80039 1.47785C14 1.47785 17.4169 4.60469 17.4169 8.44828C17.4169 12.2919 14.0002 15.4187 9.80039 15.4187Z" fill="#B0B0B0"/>
<path d="M22.1862 18.7387L16.319 13.3692C16.0036 13.0805 15.4928 13.0805 15.1774 13.3692C14.8619 13.6577 14.8619 14.1256 15.1774 14.4141L21.0445 19.7835C21.2022 19.9278 21.4086 20 21.6154 20C21.8221 20 22.0285 19.9278 22.1862 19.7835C22.5016 19.4951 22.5016 19.0271 22.1862 18.7387Z" fill="#B0B0B0"/>
</g>
<defs>
<clipPath id="clip0_1_72">
<rect width="21.8537" height="20" fill="white" transform="translate(0.569092)"/>
</clipPath>
</defs>
</svg>
